<svg width="20" height="20" viewBox="0 0 20 20" fill="none" xmlns="http://www.w3.org/2000/svg">
<path d="M2.79375 9.66872L8.41875 4.04372C8.50761 3.96092 8.62514 3.91585 8.74658 3.91799C8.86801 3.92013 8.98388 3.96933 9.06976 4.05521C9.15565 4.14109 9.20484 4.25696 9.20698 4.3784C9.20913 4.49984 9.16405 4.61736 9.08125 4.70622L4.25703 9.53122L16.875 9.53122C16.9993 9.53122 17.1185 9.58061 17.2065 9.66852C17.2944 9.75642 17.3438 9.87565 17.3438 9.99997C17.3438 10.1243 17.2944 10.2435 17.2065 10.3314C17.1185 10.4193 16.9993 10.4687 16.875 10.4687L4.25703 10.4687L9.08125 15.2937C9.16405 15.3826 9.20913 15.5001 9.20698 15.6216C9.20484 15.743 9.15565 15.8589 9.06976 15.9447C8.98388 16.0306 8.86801 16.0798 8.74658 16.082C8.62514 16.0841 8.50761 16.039 8.41875 15.9562L2.79375 10.3312C2.70597 10.2433 2.65666 10.1242 2.65666 9.99997C2.65666 9.87575 2.70597 9.75661 2.79375 9.66872Z" fill="black"/>
</svg>
